<svg width="171" height="98" viewBox="0 0 171 98" fill="none" xmlns="http://www.w3.org/2000/svg">
<path fill-rule="evenodd" clip-rule="evenodd" d="M15.0889 65.8033C12.7191 65.8033 6.81288 65.923 6.81288 62.7221C6.81288 61.8654 7.21962 60.8483 7.584 60.1711C8.08959 59.2329 8.78162 58.5394 9.44822 57.7235C11.4254 55.314 13.9675 53.3995 16.4306 51.4849C18.8371 49.6084 17.9389 50.5249 20.385 50.8567C22.6305 51.1613 24.7066 49.3609 24.7066 47.0085C24.7066 45.1048 23.0373 43.1848 21.0657 43.1848C19.5969 43.1848 18.5236 43.6091 17.5604 44.5909C16.6509 45.5237 16.6509 46.247 16.6509 47.9658C15.0663 48.3221 9.26744 52.4395 7.62636 53.7285C3.81036 56.72 0 60.2799 0 65.4987C0 69.578 8.07547 69.85 12.2502 69.85C17.7045 69.85 23.7886 68.9879 29.1186 68.1339C29.884 68.0116 30.6919 67.8266 31.4573 67.7287C32.2228 67.6308 32.977 67.4568 33.6887 67.3262C37.3607 66.6464 40.9988 65.7625 44.6283 64.8977L56.9011 61.2046L60.8725 59.9291L64.9201 58.621C66.2335 58.126 67.5159 57.7779 68.8265 57.283L72.7527 55.8579C74.6932 55.1291 76.6675 54.4982 78.5657 53.6986C79.0261 53.5028 80.0599 53.0758 80.6643 53.0622C80.6643 54.8571 80.026 56.7255 79.6447 58.4551C79.4695 59.2465 79.2436 60.1847 79.0571 61.0767C78.2945 64.7182 77.7663 68.3624 77.1195 72.0664L76.1902 77.6632C75.6931 80.478 75.4812 83.396 75.0604 86.2543L74.3147 92.017C74.0548 94.0131 73.7837 95.9168 73.7837 98C74.1283 97.758 74.0661 97.505 74.1621 96.9829C74.2384 96.5559 74.326 96.254 74.3994 95.8298C75.2468 90.902 75.7439 85.7811 76.7325 80.8723L80.0994 64.1389C80.4101 62.6377 82.2066 53.7367 82.7573 52.4612C83.0398 51.8085 84.0199 51.6454 84.6639 51.4305L87.8359 50.2339C88.2879 50.0816 88.4884 49.9619 88.929 49.7988L95.2363 47.2642C95.9961 46.9732 96.5639 46.7202 97.3322 46.4129L115.861 38.5426C116.217 38.3767 116.488 38.2217 116.819 38.083C117.209 37.9144 117.483 37.811 117.884 37.6207L141.582 26.0136L152.841 19.7587C154.12 19.0108 155.315 18.3799 156.609 17.6483L158.487 16.5877C160.877 15.0403 163.368 13.6424 165.791 12.1467C166.678 11.6028 170.469 9.31835 171 8.55415C170.074 8.76084 169.277 9.4516 168.424 9.89761L147.79 20.735C143.347 22.8671 139.012 25.157 134.515 27.1803L122.268 32.7064C121.787 32.9294 121.369 33.0709 120.872 33.2775L113.983 36.3126C110.916 37.588 106.984 38.9478 104.097 40.2858C101.318 41.5722 98.3942 42.4614 95.6007 43.6852C94.6573 44.0959 93.6998 44.3515 92.7055 44.7214C90.2933 45.6188 86.3813 47.3158 83.9493 47.8652C84.0298 47.3966 84.1373 46.9326 84.2713 46.4755L86.9405 36.4132C88.0421 32.6983 89.0759 28.8692 90.33 25.2331L93.8777 15.1137C94.7929 12.7232 96.9537 5.43755 99.284 4.9154C101.609 6.41387 100.278 14.4855 100.278 17.0283C96.5723 17.0283 96.7418 22.3939 100.165 22.3939C100.671 22.403 101.169 22.2815 101.609 22.0419C102.049 21.8023 102.414 21.4535 102.666 21.0318C102.918 20.6101 103.048 20.131 103.043 19.6445C103.037 19.158 102.896 18.6818 102.634 18.2656C101.767 16.8243 101.614 18.3554 102.092 15.0566L102.6 10.4334C102.741 8.05919 102.914 -3.197 98.5241 0.882316C96.1713 3.94996 95.0527 6.04945 93.4399 9.58486L92.7366 11.2465C91.3243 14.238 89.3273 19.8484 88.3811 23.2125L87.3445 26.7833C87.1948 27.3272 86.9857 27.9989 86.8021 28.5972C86.6185 29.1955 86.4406 29.8917 86.2852 30.4383C85.6299 32.7391 84.8729 35.5048 84.3589 37.8273C84.2318 38.4148 84.0482 39.0457 83.8787 39.7038C83.2206 42.2412 82.3082 45.5481 81.8704 48.0773C81.7857 48.5723 81.7857 48.6049 81.3931 48.7871C80.8158 49.0292 80.2256 49.2416 79.6249 49.4235L68.2079 53.2961C67.8605 53.4239 67.643 53.4838 67.2928 53.5844L61.7877 55.2977C60.3048 55.7519 58.6806 56.1462 57.2486 56.6575C55.8899 57.147 50.6786 58.5176 48.8398 58.9718C48.1817 59.135 47.6054 59.2764 46.9247 59.464L38.4934 61.6397C38.1572 61.7213 37.8465 61.7593 37.5104 61.8627C36.9229 62.0422 36.2083 62.1972 35.6095 62.3685L33.6803 62.8499C32.9431 63.013 32.4346 63.1354 31.7031 63.2768L25.7715 64.4816C25.3506 64.5714 25.1726 64.5713 24.7235 64.6421C21.5205 65.1533 18.4134 65.8033 15.0889 65.8033Z" fill="#1C4356"/>
</svg>
